<mxfile host="Electron" modified="2023-07-30T17:09:18.618Z" agent="Mozilla/5.0 (Windows NT 10.0; Win64; x64) AppleWebKit/537.36 (KHTML, like Gecko) draw.io/21.2.8 Chrome/112.0.5615.165 Electron/24.2.0 Safari/537.36" etag="xfxejonM1BgU0VMaAMo9" version="21.2.8" type="device" pages="2">
  <diagram name="Page-1" id="F6b45mlh2YlPmMmq8hf2">
    <mxGraphModel dx="595" dy="349" grid="1" gridSize="10" guides="1" tooltips="1" connect="1" arrows="1" fold="1" page="1" pageScale="1" pageWidth="850" pageHeight="1100" math="0" shadow="0">
      <root>
        <mxCell id="0" />
        <mxCell id="1" parent="0" />
        <mxCell id="6wNqSqXfvCQ5wzyr89gR-1" value="Server 1 -&#xa;4 CPU cores,&#xa;16GiB memory" style="group;strokeColor=#b85450;fontSize=6;labelPosition=center;verticalLabelPosition=bottom;align=center;verticalAlign=top;fontFamily=Verdana;sketch=1;curveFitting=1;jiggle=2;fillColor=none;fontStyle=1;fontColor=#8CB5EE;" parent="1" vertex="1" connectable="0">
          <mxGeometry x="85" y="180" width="20" height="40" as="geometry" />
        </mxCell>
        <mxCell id="6wNqSqXfvCQ5wzyr89gR-3" value="" style="line;strokeWidth=2;html=1;sketch=1;curveFitting=1;jiggle=2;strokeColor=#b85450;fillColor=#f8cecc;fontSize=6;fontStyle=1;fontColor=#8CB5EE;" parent="6wNqSqXfvCQ5wzyr89gR-1" vertex="1">
          <mxGeometry x="3.333333333333333" y="8" width="13.333333333333332" height="8" as="geometry" />
        </mxCell>
        <mxCell id="6wNqSqXfvCQ5wzyr89gR-4" value="" style="line;strokeWidth=2;html=1;sketch=1;curveFitting=1;jiggle=2;strokeColor=#b85450;fillColor=#f8cecc;fontSize=6;fontStyle=1;fontColor=#8CB5EE;" parent="6wNqSqXfvCQ5wzyr89gR-1" vertex="1">
          <mxGeometry x="3.333333333333333" y="16" width="13.333333333333332" height="8" as="geometry" />
        </mxCell>
        <mxCell id="6wNqSqXfvCQ5wzyr89gR-48" value="Server 2 -&#xa;4 CPU cores,&#xa;16GiB memory" style="group;strokeColor=#82b366;fontSize=6;labelPosition=center;verticalLabelPosition=bottom;align=center;verticalAlign=top;fontFamily=Verdana;sketch=1;curveFitting=1;jiggle=2;fillColor=none;fontStyle=1;fontColor=#8CB5EE;" parent="1" vertex="1" connectable="0">
          <mxGeometry x="290" y="180" width="20" height="40" as="geometry" />
        </mxCell>
        <mxCell id="6wNqSqXfvCQ5wzyr89gR-49" value="" style="line;strokeWidth=2;html=1;sketch=1;curveFitting=1;jiggle=2;strokeColor=#82b366;fillColor=#d5e8d4;fontSize=6;fontStyle=1;fontColor=#8CB5EE;" parent="6wNqSqXfvCQ5wzyr89gR-48" vertex="1">
          <mxGeometry x="3.333333333333333" y="8" width="13.333333333333332" height="8" as="geometry" />
        </mxCell>
        <mxCell id="6wNqSqXfvCQ5wzyr89gR-50" value="" style="line;strokeWidth=2;html=1;sketch=1;curveFitting=1;jiggle=2;strokeColor=#82b366;fillColor=#d5e8d4;fontSize=6;fontStyle=1;fontColor=#8CB5EE;" parent="6wNqSqXfvCQ5wzyr89gR-48" vertex="1">
          <mxGeometry x="3.333333333333333" y="16" width="13.333333333333332" height="8" as="geometry" />
        </mxCell>
        <mxCell id="6wNqSqXfvCQ5wzyr89gR-51" value="Server 1 -&#xa;4 CPU cores,&#xa;16GiB memory" style="group;strokeColor=#82b366;fontSize=6;labelPosition=center;verticalLabelPosition=bottom;align=center;verticalAlign=top;fontFamily=Verdana;sketch=1;curveFitting=1;jiggle=2;fillColor=none;fontStyle=1;fontColor=#8CB5EE;" parent="1" vertex="1" connectable="0">
          <mxGeometry x="230" y="180" width="20" height="40" as="geometry" />
        </mxCell>
        <mxCell id="6wNqSqXfvCQ5wzyr89gR-52" value="" style="line;strokeWidth=2;html=1;sketch=1;curveFitting=1;jiggle=2;strokeColor=#82b366;fillColor=#d5e8d4;fontSize=6;fontStyle=1;fontColor=#8CB5EE;" parent="6wNqSqXfvCQ5wzyr89gR-51" vertex="1">
          <mxGeometry x="3.333333333333333" y="8" width="13.333333333333332" height="8" as="geometry" />
        </mxCell>
        <mxCell id="6wNqSqXfvCQ5wzyr89gR-53" value="" style="line;strokeWidth=2;html=1;sketch=1;curveFitting=1;jiggle=2;strokeColor=#82b366;fillColor=#d5e8d4;fontSize=6;fontStyle=1;fontColor=#8CB5EE;" parent="6wNqSqXfvCQ5wzyr89gR-51" vertex="1">
          <mxGeometry x="3.333333333333333" y="16" width="13.333333333333332" height="8" as="geometry" />
        </mxCell>
        <mxCell id="6wNqSqXfvCQ5wzyr89gR-54" value="Server 3 -&#xa;4 CPU cores,&#xa;16GiB memory" style="group;strokeColor=#82b366;fontSize=6;labelPosition=center;verticalLabelPosition=bottom;align=center;verticalAlign=top;fontFamily=Verdana;sketch=1;curveFitting=1;jiggle=2;fillColor=none;fontStyle=1;fontColor=#8CB5EE;" parent="1" vertex="1" connectable="0">
          <mxGeometry x="350" y="180" width="20" height="40" as="geometry" />
        </mxCell>
        <mxCell id="6wNqSqXfvCQ5wzyr89gR-55" value="" style="line;strokeWidth=2;html=1;sketch=1;curveFitting=1;jiggle=2;strokeColor=#82b366;fillColor=#d5e8d4;fontSize=6;fontStyle=1;fontColor=#8CB5EE;" parent="6wNqSqXfvCQ5wzyr89gR-54" vertex="1">
          <mxGeometry x="3.333333333333333" y="8" width="13.333333333333332" height="8" as="geometry" />
        </mxCell>
        <mxCell id="6wNqSqXfvCQ5wzyr89gR-56" value="" style="line;strokeWidth=2;html=1;sketch=1;curveFitting=1;jiggle=2;strokeColor=#82b366;fillColor=#d5e8d4;fontSize=6;fontStyle=1;fontColor=#8CB5EE;" parent="6wNqSqXfvCQ5wzyr89gR-54" vertex="1">
          <mxGeometry x="3.333333333333333" y="16" width="13.333333333333332" height="8" as="geometry" />
        </mxCell>
        <mxCell id="6wNqSqXfvCQ5wzyr89gR-61" value="" style="edgeStyle=none;orthogonalLoop=1;jettySize=auto;html=1;rounded=1;sketch=1;curveFitting=1;jiggle=2;strokeColor=#8CB5EE;endArrow=classicThin;endFill=1;fontColor=#8CB5EE;fontSize=6;fontStyle=1;dashed=1;" parent="1" edge="1">
          <mxGeometry width="100" relative="1" as="geometry">
            <mxPoint x="120" y="200" as="sourcePoint" />
            <mxPoint x="220" y="199.71" as="targetPoint" />
            <Array as="points" />
          </mxGeometry>
        </mxCell>
        <mxCell id="AsDdCNnKRZNUmmkMPWEp-7" style="edgeStyle=orthogonalEdgeStyle;rounded=0;orthogonalLoop=1;jettySize=auto;html=1;sketch=1;curveFitting=1;jiggle=2;strokeColor=#8CB5EE;" edge="1" parent="1" source="AsDdCNnKRZNUmmkMPWEp-6">
          <mxGeometry relative="1" as="geometry">
            <mxPoint x="95" y="180" as="targetPoint" />
          </mxGeometry>
        </mxCell>
        <mxCell id="AsDdCNnKRZNUmmkMPWEp-6" value="&lt;b style=&quot;font-size: 6px;&quot;&gt;Users&lt;/b&gt;" style="sketch=0;outlineConnect=0;fontColor=#8CB5EE;gradientColor=none;fillColor=#8CB5EE;strokeColor=none;dashed=0;verticalLabelPosition=top;verticalAlign=bottom;align=center;html=1;fontSize=6;fontStyle=0;aspect=fixed;pointerEvents=1;shape=mxgraph.aws4.users;labelPosition=center;" vertex="1" parent="1">
          <mxGeometry x="80" y="85" width="30" height="30" as="geometry" />
        </mxCell>
        <mxCell id="AsDdCNnKRZNUmmkMPWEp-9" style="edgeStyle=orthogonalEdgeStyle;rounded=0;orthogonalLoop=1;jettySize=auto;html=1;strokeColor=#8CB5EE;sketch=1;curveFitting=1;jiggle=2;" edge="1" parent="1" source="AsDdCNnKRZNUmmkMPWEp-8">
          <mxGeometry relative="1" as="geometry">
            <mxPoint x="300" y="180" as="targetPoint" />
          </mxGeometry>
        </mxCell>
        <mxCell id="AsDdCNnKRZNUmmkMPWEp-10" style="edgeStyle=orthogonalEdgeStyle;rounded=0;orthogonalLoop=1;jettySize=auto;html=1;strokeColor=#8CB5EE;sketch=1;curveFitting=1;jiggle=2;" edge="1" parent="1" source="AsDdCNnKRZNUmmkMPWEp-8">
          <mxGeometry relative="1" as="geometry">
            <mxPoint x="240" y="180" as="targetPoint" />
            <Array as="points">
              <mxPoint x="300" y="150" />
              <mxPoint x="240" y="150" />
            </Array>
          </mxGeometry>
        </mxCell>
        <mxCell id="AsDdCNnKRZNUmmkMPWEp-11" style="edgeStyle=orthogonalEdgeStyle;rounded=0;orthogonalLoop=1;jettySize=auto;html=1;strokeColor=#8CB5EE;sketch=1;curveFitting=1;jiggle=2;" edge="1" parent="1" source="AsDdCNnKRZNUmmkMPWEp-8">
          <mxGeometry relative="1" as="geometry">
            <mxPoint x="360" y="180" as="targetPoint" />
            <Array as="points">
              <mxPoint x="300" y="150" />
              <mxPoint x="360" y="150" />
            </Array>
          </mxGeometry>
        </mxCell>
        <mxCell id="AsDdCNnKRZNUmmkMPWEp-8" value="&lt;b style=&quot;font-size: 6px;&quot;&gt;Users&lt;/b&gt;" style="sketch=0;outlineConnect=0;fontColor=#8CB5EE;gradientColor=none;fillColor=#8CB5EE;strokeColor=none;dashed=0;verticalLabelPosition=top;verticalAlign=bottom;align=center;html=1;fontSize=6;fontStyle=0;aspect=fixed;pointerEvents=1;shape=mxgraph.aws4.users;labelPosition=center;" vertex="1" parent="1">
          <mxGeometry x="285" y="85" width="30" height="30" as="geometry" />
        </mxCell>
        <mxCell id="AsDdCNnKRZNUmmkMPWEp-12" value="Increase the number of &#xa;servers to distirbute&#xa;network traffic" style="text;align=center;verticalAlign=middle;resizable=0;points=[];autosize=1;strokeColor=none;fillColor=none;fontColor=#8CB5EE;fontSize=6;fontStyle=1;fontFamily=Verdana;" vertex="1" parent="1">
          <mxGeometry x="120" y="160" width="100" height="40" as="geometry" />
        </mxCell>
        <mxCell id="AsDdCNnKRZNUmmkMPWEp-14" style="edgeStyle=orthogonalEdgeStyle;rounded=0;orthogonalLoop=1;jettySize=auto;html=1;sketch=1;curveFitting=1;jiggle=2;strokeColor=#8CB5EE;" edge="1" parent="1">
          <mxGeometry relative="1" as="geometry">
            <mxPoint x="85" y="180" as="targetPoint" />
            <mxPoint x="85" y="110" as="sourcePoint" />
          </mxGeometry>
        </mxCell>
        <mxCell id="AsDdCNnKRZNUmmkMPWEp-15" style="edgeStyle=orthogonalEdgeStyle;rounded=0;orthogonalLoop=1;jettySize=auto;html=1;sketch=1;curveFitting=1;jiggle=2;strokeColor=#8CB5EE;" edge="1" parent="1">
          <mxGeometry relative="1" as="geometry">
            <mxPoint x="105" y="180" as="targetPoint" />
            <mxPoint x="105" y="110" as="sourcePoint" />
          </mxGeometry>
        </mxCell>
      </root>
    </mxGraphModel>
  </diagram>
  <diagram id="sQgWy0Glizr-BnA-MxLu" name="Page-2">
    <mxGraphModel dx="496" dy="291" grid="1" gridSize="10" guides="1" tooltips="1" connect="1" arrows="1" fold="1" page="1" pageScale="1" pageWidth="850" pageHeight="1100" math="0" shadow="0">
      <root>
        <mxCell id="0" />
        <mxCell id="1" parent="0" />
        <mxCell id="fL7lZTnlTA15-pzCUfqG-1" value="Server 1 - &#xa;4 CPU cores,&#xa;16GiB memory" style="group;strokeColor=#b85450;fontSize=7;labelPosition=center;verticalLabelPosition=bottom;align=center;verticalAlign=top;fontFamily=Verdana;sketch=1;curveFitting=1;jiggle=2;fillColor=none;fontStyle=1;fontColor=#8CB5EE;" parent="1" vertex="1" connectable="0">
          <mxGeometry x="100" y="300" width="20" height="40" as="geometry" />
        </mxCell>
        <mxCell id="fL7lZTnlTA15-pzCUfqG-2" value="" style="line;strokeWidth=2;html=1;sketch=1;curveFitting=1;jiggle=2;strokeColor=#b85450;fillColor=#f8cecc;fontStyle=1" parent="fL7lZTnlTA15-pzCUfqG-1" vertex="1">
          <mxGeometry x="3.333333333333333" y="8" width="13.333333333333332" height="8" as="geometry" />
        </mxCell>
        <mxCell id="fL7lZTnlTA15-pzCUfqG-3" value="" style="line;strokeWidth=2;html=1;sketch=1;curveFitting=1;jiggle=2;strokeColor=#b85450;fillColor=none;fontStyle=1" parent="fL7lZTnlTA15-pzCUfqG-1" vertex="1">
          <mxGeometry x="3.333333333333333" y="16" width="13.333333333333332" height="8" as="geometry" />
        </mxCell>
        <mxCell id="fL7lZTnlTA15-pzCUfqG-4" value="Server 1 - &#xa;8 CPU cores,&#xa;32GB memory" style="group;strokeColor=#82b366;fontSize=7;labelPosition=center;verticalLabelPosition=bottom;align=center;verticalAlign=top;fontFamily=Verdana;sketch=1;curveFitting=1;jiggle=2;fillColor=none;fontStyle=1;fontColor=#8CB5EE;" parent="1" vertex="1" connectable="0">
          <mxGeometry x="240" y="280" width="30" height="60" as="geometry" />
        </mxCell>
        <mxCell id="fL7lZTnlTA15-pzCUfqG-5" value="" style="line;strokeWidth=2;html=1;sketch=1;curveFitting=1;jiggle=2;strokeColor=#82b366;fillColor=#d5e8d4;fontStyle=1" parent="fL7lZTnlTA15-pzCUfqG-4" vertex="1">
          <mxGeometry x="5" y="12" width="20" height="12" as="geometry" />
        </mxCell>
        <mxCell id="fL7lZTnlTA15-pzCUfqG-6" value="" style="line;strokeWidth=2;html=1;sketch=1;curveFitting=1;jiggle=2;strokeColor=#82b366;fillColor=#d5e8d4;fontStyle=1" parent="fL7lZTnlTA15-pzCUfqG-4" vertex="1">
          <mxGeometry x="5" y="24" width="20" height="12" as="geometry" />
        </mxCell>
        <mxCell id="fL7lZTnlTA15-pzCUfqG-7" value="" style="edgeStyle=none;orthogonalLoop=1;jettySize=auto;html=1;rounded=0;sketch=1;curveFitting=1;jiggle=2;strokeColor=#8CB5EE;endArrow=classicThin;endFill=1;fontColor=#8CB5EE;fontStyle=1;dashed=1;" parent="1" edge="1">
          <mxGeometry width="100" relative="1" as="geometry">
            <mxPoint x="130" y="320" as="sourcePoint" />
            <mxPoint x="230" y="320" as="targetPoint" />
            <Array as="points" />
          </mxGeometry>
        </mxCell>
        <mxCell id="PG-_tTAaqSgrECH8_LJu-1" style="edgeStyle=orthogonalEdgeStyle;rounded=0;orthogonalLoop=1;jettySize=auto;html=1;sketch=1;curveFitting=1;jiggle=2;strokeColor=#8CB5EE;" edge="1" parent="1" source="PG-_tTAaqSgrECH8_LJu-2">
          <mxGeometry relative="1" as="geometry">
            <mxPoint x="110" y="300" as="targetPoint" />
          </mxGeometry>
        </mxCell>
        <mxCell id="PG-_tTAaqSgrECH8_LJu-2" value="&lt;b style=&quot;font-size: 6px;&quot;&gt;Users&lt;/b&gt;" style="sketch=0;outlineConnect=0;fontColor=#8CB5EE;gradientColor=none;fillColor=#8CB5EE;strokeColor=none;dashed=0;verticalLabelPosition=top;verticalAlign=bottom;align=center;html=1;fontSize=6;fontStyle=0;aspect=fixed;pointerEvents=1;shape=mxgraph.aws4.users;labelPosition=center;" vertex="1" parent="1">
          <mxGeometry x="95" y="205" width="30" height="30" as="geometry" />
        </mxCell>
        <mxCell id="PG-_tTAaqSgrECH8_LJu-3" style="edgeStyle=orthogonalEdgeStyle;rounded=0;orthogonalLoop=1;jettySize=auto;html=1;sketch=1;curveFitting=1;jiggle=2;strokeColor=#8CB5EE;" edge="1" parent="1">
          <mxGeometry relative="1" as="geometry">
            <mxPoint x="100" y="300" as="targetPoint" />
            <mxPoint x="100" y="230" as="sourcePoint" />
          </mxGeometry>
        </mxCell>
        <mxCell id="PG-_tTAaqSgrECH8_LJu-4" style="edgeStyle=orthogonalEdgeStyle;rounded=0;orthogonalLoop=1;jettySize=auto;html=1;sketch=1;curveFitting=1;jiggle=2;strokeColor=#8CB5EE;" edge="1" parent="1">
          <mxGeometry relative="1" as="geometry">
            <mxPoint x="120" y="300" as="targetPoint" />
            <mxPoint x="120" y="230" as="sourcePoint" />
          </mxGeometry>
        </mxCell>
        <mxCell id="PG-_tTAaqSgrECH8_LJu-9" style="edgeStyle=orthogonalEdgeStyle;rounded=0;orthogonalLoop=1;jettySize=auto;html=1;sketch=1;curveFitting=1;jiggle=2;strokeColor=#8CB5EE;" edge="1" parent="1" source="PG-_tTAaqSgrECH8_LJu-10">
          <mxGeometry relative="1" as="geometry">
            <mxPoint x="255" y="280" as="targetPoint" />
          </mxGeometry>
        </mxCell>
        <mxCell id="PG-_tTAaqSgrECH8_LJu-10" value="&lt;b style=&quot;font-size: 6px;&quot;&gt;Users&lt;/b&gt;" style="sketch=0;outlineConnect=0;fontColor=#8CB5EE;gradientColor=none;fillColor=#8CB5EE;strokeColor=none;dashed=0;verticalLabelPosition=top;verticalAlign=bottom;align=center;html=1;fontSize=6;fontStyle=0;aspect=fixed;pointerEvents=1;shape=mxgraph.aws4.users;labelPosition=center;" vertex="1" parent="1">
          <mxGeometry x="240" y="205" width="30" height="30" as="geometry" />
        </mxCell>
        <mxCell id="PG-_tTAaqSgrECH8_LJu-11" style="edgeStyle=orthogonalEdgeStyle;rounded=0;orthogonalLoop=1;jettySize=auto;html=1;sketch=1;curveFitting=1;jiggle=2;strokeColor=#8CB5EE;" edge="1" parent="1">
          <mxGeometry relative="1" as="geometry">
            <mxPoint x="245" y="280" as="targetPoint" />
            <mxPoint x="245" y="230" as="sourcePoint" />
          </mxGeometry>
        </mxCell>
        <mxCell id="PG-_tTAaqSgrECH8_LJu-12" style="edgeStyle=orthogonalEdgeStyle;rounded=0;orthogonalLoop=1;jettySize=auto;html=1;sketch=1;curveFitting=1;jiggle=2;strokeColor=#8CB5EE;" edge="1" parent="1">
          <mxGeometry relative="1" as="geometry">
            <mxPoint x="265" y="280" as="targetPoint" />
            <mxPoint x="265" y="230" as="sourcePoint" />
          </mxGeometry>
        </mxCell>
        <mxCell id="XbXH-Iv01xMm2d-SM-cE-1" value="Change the underlying&#xa;hardware to handle&#xa;increase in traffic" style="text;align=center;verticalAlign=middle;resizable=0;points=[];autosize=1;strokeColor=none;fillColor=none;fontColor=#8CB5EE;fontSize=6;fontStyle=1;fontFamily=Verdana;" vertex="1" parent="1">
          <mxGeometry x="130" y="280" width="100" height="40" as="geometry" />
        </mxCell>
      </root>
    </mxGraphModel>
  </diagram>
</mxfile>
